<svg width="229" height="34" viewBox="0 0 229 34" fill="none" xmlns="http://www.w3.org/2000/svg">
<path d="M16.0469 20.9375H7.20312V30H1.71875V7.25H16.9375V11.4844H7.20312V16.7188H16.0469V20.9375ZM24.7031 25.7812H34.25V30H19.2188V7.25H24.7031V25.7812ZM49.7969 25.75H42.2812L40.9688 30H35.1094L43.4531 7.25H48.6094L57.0156 30H51.125L49.7969 25.75ZM43.5938 21.5156H48.4844L46.0312 13.625L43.5938 21.5156ZM64.6719 17.125L68.8594 7.25H74.7812L67.4531 21.8281V30H61.8906V21.8281L54.5781 7.25H60.4688L64.6719 17.125ZM96.1406 23.9531C96.1406 23.151 95.8542 22.526 95.2812 22.0781C94.7188 21.6302 93.724 21.1667 92.2969 20.6875C90.8698 20.2083 89.7031 19.7448 88.7969 19.2969C85.849 17.849 84.375 15.8594 84.375 13.3281C84.375 12.0677 84.7396 10.9583 85.4688 10C86.2083 9.03125 87.25 8.28125 88.5938 7.75C89.9375 7.20833 91.4479 6.9375 93.125 6.9375C94.7604 6.9375 96.224 7.22917 97.5156 7.8125C98.8177 8.39583 99.8281 9.22917 100.547 10.3125C101.266 11.3854 101.625 12.6146 101.625 14H96.1562C96.1562 13.0729 95.8698 12.3542 95.2969 11.8438C94.7344 11.3333 93.9688 11.0781 93 11.0781C92.0208 11.0781 91.2448 11.2969 90.6719 11.7344C90.1094 12.1615 89.8281 12.7083 89.8281 13.375C89.8281 13.9583 90.1406 14.4896 90.7656 14.9688C91.3906 15.4375 92.4896 15.9271 94.0625 16.4375C95.6354 16.9375 96.9271 17.4792 97.9375 18.0625C100.396 19.4792 101.625 21.4323 101.625 23.9219C101.625 25.9115 100.875 27.474 99.375 28.6094C97.875 29.7448 95.8177 30.3125 93.2031 30.3125C91.3594 30.3125 89.6875 29.9844 88.1875 29.3281C86.6979 28.6615 85.5729 27.7552 84.8125 26.6094C84.0625 25.4531 83.6875 24.125 83.6875 22.625H89.1875C89.1875 23.8438 89.5 24.7448 90.125 25.3281C90.7604 25.901 91.7865 26.1875 93.2031 26.1875C94.1094 26.1875 94.8229 25.9948 95.3438 25.6094C95.875 25.2135 96.1406 24.6615 96.1406 23.9531ZM123.453 30H118V20.5H109.922V30H104.438V7.25H109.922V16.2812H118V7.25H123.453V30ZM146.203 19.0938C146.203 21.3125 145.792 23.276 144.969 24.9844C144.146 26.6927 142.974 28.0104 141.453 28.9375C139.943 29.8542 138.219 30.3125 136.281 30.3125C134.344 30.3125 132.625 29.8698 131.125 28.9844C129.625 28.0885 128.453 26.8125 127.609 25.1562C126.776 23.5 126.339 21.599 126.297 19.4531V18.1719C126.297 15.9427 126.703 13.9792 127.516 12.2812C128.339 10.5729 129.51 9.25521 131.031 8.32812C132.562 7.40104 134.302 6.9375 136.25 6.9375C138.177 6.9375 139.896 7.39583 141.406 8.3125C142.917 9.22917 144.089 10.5365 144.922 12.2344C145.766 13.9219 146.193 15.8594 146.203 18.0469V19.0938ZM140.625 18.1406C140.625 15.8802 140.245 14.1667 139.484 13C138.734 11.8229 137.656 11.2344 136.25 11.2344C133.5 11.2344 132.047 13.2969 131.891 17.4219L131.875 19.0938C131.875 21.3229 132.245 23.0365 132.984 24.2344C133.724 25.4323 134.823 26.0312 136.281 26.0312C137.667 26.0312 138.734 25.4427 139.484 24.2656C140.234 23.0885 140.615 21.3958 140.625 19.1875V18.1406ZM163.141 20.3594H154.516V25.7812H164.703V30H149.031V7.25H164.734V11.4844H154.516V16.2812H163.141V20.3594ZM178.672 23.9531C178.672 23.151 178.385 22.526 177.812 22.0781C177.25 21.6302 176.255 21.1667 174.828 20.6875C173.401 20.2083 172.234 19.7448 171.328 19.2969C168.38 17.849 166.906 15.8594 166.906 13.3281C166.906 12.0677 167.271 10.9583 168 10C168.74 9.03125 169.781 8.28125 171.125 7.75C172.469 7.20833 173.979 6.9375 175.656 6.9375C177.292 6.9375 178.755 7.22917 180.047 7.8125C181.349 8.39583 182.359 9.22917 183.078 10.3125C183.797 11.3854 184.156 12.6146 184.156 14H178.688C178.688 13.0729 178.401 12.3542 177.828 11.8438C177.266 11.3333 176.5 11.0781 175.531 11.0781C174.552 11.0781 173.776 11.2969 173.203 11.7344C172.641 12.1615 172.359 12.7083 172.359 13.375C172.359 13.9583 172.672 14.4896 173.297 14.9688C173.922 15.4375 175.021 15.9271 176.594 16.4375C178.167 16.9375 179.458 17.4792 180.469 18.0625C182.927 19.4792 184.156 21.4323 184.156 23.9219C184.156 25.9115 183.406 27.474 181.906 28.6094C180.406 29.7448 178.349 30.3125 175.734 30.3125C173.891 30.3125 172.219 29.9844 170.719 29.3281C169.229 28.6615 168.104 27.7552 167.344 26.6094C166.594 25.4531 166.219 24.125 166.219 22.625H171.719C171.719 23.8438 172.031 24.7448 172.656 25.3281C173.292 25.901 174.318 26.1875 175.734 26.1875C176.641 26.1875 177.354 25.9948 177.875 25.6094C178.406 25.2135 178.672 24.6615 178.672 23.9531Z" fill="url(#paint0_linear)"/>
<path d="M202.172 26.7932C202.172 26.3978 201.913 26.1342 201.523 26.1342H190.213C189.823 26.1342 189.563 26.3978 189.563 26.7932C189.563 27.1887 189.823 27.4523 190.213 27.4523H201.523C201.913 27.4523 202.172 27.1228 202.172 26.7932Z" fill="#A4916D"/>
<path d="M192.813 29.4297H191.513C191.123 29.4297 190.863 29.6932 190.863 30.0887C190.863 30.4842 191.123 30.7478 191.513 30.7478H192.813C193.203 30.7478 193.463 30.4842 193.463 30.0887C193.463 29.6932 193.203 29.4297 192.813 29.4297Z" fill="#A4916D"/>
<path d="M195.868 23.4978C195.868 23.1023 195.608 22.8387 195.218 22.8387H188.913C188.523 22.8387 188.263 23.1023 188.263 23.4978C188.263 23.8932 188.523 24.1569 188.913 24.1569H195.218C195.608 24.1569 195.868 23.8273 195.868 23.4978Z" fill="#A4916D"/>
<path fill-rule="evenodd" clip-rule="evenodd" d="M228.171 24.6182C227.976 24.2228 227.586 23.8932 227.196 23.6955L222.257 21.7842L220.242 21.0592C219.657 20.7955 219.137 20.4001 218.812 19.8728L217.122 17.0388C217.447 16.9728 217.642 16.7092 217.642 16.3797C217.642 15.9842 217.382 15.7205 216.992 15.7205H216.342L215.562 14.4023C215.887 14.3364 216.082 14.0728 216.082 13.7432C216.082 13.3478 215.822 13.0842 215.432 13.0842H214.782L214.132 12.0297C214.392 11.9638 214.587 11.7001 214.587 11.4364C214.587 11.041 214.327 10.7773 213.937 10.7773H213.352L212.507 9.39327C212.507 9.39327 212.507 9.32735 212.442 9.32735C211.662 8.40463 210.622 7.94327 209.517 8.07509C208.542 8.2069 207.762 8.80009 207.437 9.52509C207.372 9.72281 207.372 9.92054 207.502 10.1182L212.897 19.4773C212.962 19.6092 213.092 19.741 213.222 19.741L219.852 22.3114H219.917L221.867 23.0364L226.741 24.9478C226.871 25.0138 227.001 25.0797 227.066 25.2773C227.326 25.8047 227.326 26.3319 227.001 26.8592H216.407C215.757 26.8592 215.107 26.6614 214.587 26.266L196.453 12.6228C196.453 12.6228 196.713 12.491 197.038 12.0297C197.363 11.5682 197.493 10.9751 197.493 10.3819L196.908 4.84554L197.688 3.59327C197.883 3.32963 198.273 3.26372 198.533 3.46145C198.547 3.47597 198.565 3.49297 198.585 3.51325C198.848 3.76912 199.646 4.54572 201.393 7.416C202.368 8.866 203.928 9.92054 205.682 10.1842C206.007 10.2501 206.397 9.98645 206.462 9.6569C206.527 9.32735 206.267 8.9319 205.942 8.866C204.577 8.60236 203.277 7.81145 202.498 6.62509C200.223 3.066 199.573 2.53872 199.313 2.34099C198.468 1.74781 197.298 1.94554 196.648 2.80236L192.683 9.19554C192.423 9.591 192.358 10.0524 192.423 10.5138C192.033 10.6455 191.643 10.8432 191.448 11.2388L190.408 12.8864C189.823 13.7432 190.083 14.9297 190.928 15.5228C191.433 15.9212 192.423 16.5653 193.856 17.4975C194.082 17.6449 194.32 17.7995 194.568 17.9614H194.568C194.698 18.0273 194.828 18.0932 194.893 18.0932C195.088 18.0932 195.283 17.9614 195.413 17.7638C195.608 17.4342 195.543 17.0388 195.218 16.841C194.66 16.464 194.155 16.127 193.707 15.8277C192.744 15.1853 192.042 14.7171 191.643 14.4023C191.383 14.2047 191.318 13.8751 191.513 13.5456L192.488 12.0297C192.683 11.766 193.073 11.7001 193.333 11.8978L213.742 27.3205C214.522 27.9138 215.432 28.1773 216.342 28.1773H225.311C223.946 28.8364 222.062 29.4297 220.437 29.4297H218.162H216.277C215.172 29.4297 214.067 29.1001 213.157 28.5069C209.387 26.0682 202.368 21.5205 197.233 18.1592C196.908 17.9614 196.518 18.0273 196.323 18.3569C196.128 18.6864 196.193 19.0819 196.518 19.2797C199.812 21.4487 203.895 24.1032 207.394 26.3786C209.211 27.5602 210.871 28.6395 212.182 29.4955H195.413C195.023 29.4955 194.763 29.7592 194.763 30.1547C194.763 30.5501 195.023 30.8137 195.413 30.8137H216.277H218.162H220.372C223.037 30.8137 226.871 29.3638 227.846 27.9797C228.691 26.7932 228.756 25.6728 228.171 24.6182ZM213.807 18.6864L208.737 9.92054C208.932 9.72281 209.257 9.52509 209.647 9.45918C210.037 9.39327 210.752 9.45918 211.402 10.1842L211.792 10.8432H211.207C210.817 10.8432 210.557 11.1069 210.557 11.5023C210.557 11.8978 210.817 12.1614 211.207 12.1614H212.572L213.222 13.216H212.702C212.312 13.216 212.052 13.4797 212.052 13.8751C212.052 14.2705 212.312 14.5342 212.702 14.5342H214.002L214.782 15.7864H214.262C213.872 15.7864 213.612 16.0501 213.612 16.4455C213.612 16.841 213.872 17.1047 214.262 17.1047H215.562L217.382 20.0047L213.807 18.6864ZM195.803 6.691L193.788 9.92054C193.658 10.1842 193.723 10.5138 194.113 10.8432C194.698 11.3047 195.023 11.5023 195.023 11.5023C195.564 11.929 195.827 11.5102 195.966 11.2884C195.978 11.2703 195.988 11.2536 195.998 11.2388C196.128 11.041 196.193 10.7773 196.193 10.5138L195.803 6.691Z" fill="#A4916D"/>
<defs>
<linearGradient id="paint0_linear" x1="225.775" y1="16.32" x2="8.29906e-07" y2="16.32" gradientUnits="userSpaceOnUse">
<stop stop-color="#A4916D"/>
<stop offset="0.201285" stop-color="#A4916D"/>
<stop offset="0.924777" stop-color="white" stop-opacity="0.75"/>
<stop offset="1" stop-color="white"/>
</linearGradient>
</defs>
</svg>
